<?xml version="1.0" encoding="UTF-8"?>
<svg id="_レイヤー_2" data-name="レイヤー_2" xmlns="http://www.w3.org/2000/svg" viewBox="0 0 60.28 60.28">
  <defs>
    <style>
      .cls-1 {
        fill: #442a19;
      }
    </style>
  </defs>
  <g id="layer">
    <g>
      <polygon class="cls-1" points="58.83 1.45 58.83 58.83 1.45 58.83 0 60.28 60.28 60.28 60.28 0 58.83 1.45"/>
      <path class="cls-1" d="M55.7,10.43c-.37.37-.37.96,0,1.32.37.37.96.37,1.32,0,.37-.37.37-.96,0-1.32-.37-.37-.96-.37-1.32,0Z"/>
      <path class="cls-1" d="M55.53,44.38c-.4.4-.4,1.04,0,1.44.4.4,1.04.4,1.44,0,.4-.4.4-1.04,0-1.44s-1.04-.4-1.44,0Z"/>
      <path class="cls-1" d="M43.58,25.2c.62-.62.62-1.64,0-2.26-.62-.62-1.64-.62-2.26,0s-.62,1.64,0,2.26,1.64.62,2.26,0Z"/>
      <path class="cls-1" d="M57.93,7.64c.66-.66.66-1.72,0-2.37s-1.72-.66-2.37,0c-.66.66-.66,1.72,0,2.37.66.66,1.72.66,2.37,0Z"/>
      <path class="cls-1" d="M14.09,56.11c1.61.91,3.46,1.34,5.3,1.28.92-.03,1.83-.19,2.71-.47.88-.29,1.68-.71,2.47-1.15.72-.41,1.41-.88,2.07-1.37.37.61.79,1.19,1.34,1.7.6.55,1.42,1.08,2.43,1.04.49-.02.97-.19,1.36-.45.37-.24.68-.51.98-.84.58-.63.97-1.52.98-2.42.02-.9-.3-1.75-.76-2.44-.32-.46-.7-.85-1.11-1.2.3-.26.61-.51.93-.75.67-.52,1.4-.92,2.15-1.25.75-.3,1.57-.48,2.34-.52.77,0,1.52.16,2.17.52.65.35,1.18.93,1.55,1.59.73,1.31.97,3.09.3,4.28-.39.64-1,1.21-1.66,1.44-.67.25-1.43.08-1.89-.45-.47-.53-.62-1.3-.37-1.98.23-.69.76-1.38,1.34-1.81h.01c.05-.05.1-.1.15-.15.27-.35.22-.85-.13-1.13-.35-.28-.85-.22-1.13.13-.34.43-.59.81-.82,1.26-.23.43-.43.9-.54,1.4-.24,1.01,0,2.19.74,2.96.71.81,1.94,1.11,2.95.81,1.02-.28,1.83-.95,2.43-1.74.65-.89.83-1.96.77-2.95-.06-1-.37-1.96-.88-2.82-.5-.85-1.23-1.62-2.13-2.1-.9-.49-1.94-.67-2.92-.62-.99.09-1.9.34-2.77.73-.85.41-1.66.91-2.35,1.5-.39.32-.75.65-1.11.99-.6-.38-1.24-.68-1.9-.9-.97-.34-2.07-.43-3.12-.21,0-.19,0-.38,0-.57.1-1.41.71-2.75,1.66-3.8,1.93-2.13,5.07-2.88,7.89-2.43,1.42.23,2.83.67,4,1.44,1.18.76,2.09,1.85,2.76,3.1.67,1.26,1.19,2.64,1.75,4.04.55,1.41,1.17,2.83,2.1,4.12.93,1.34,2.38,2.37,3.99,2.7,1.63.35,3.2.15,4.85-.35.08-.02.15-.06.22-.11.23-.16.34-.42.34-.68.35,0,.68-.21.78-.56.5-1.65.69-3.22.35-4.85-.34-1.61-1.37-3.07-2.7-3.99-1.29-.93-2.71-1.55-4.12-2.1-1.4-.56-2.78-1.08-4.04-1.75-1.25-.68-2.34-1.58-3.1-2.76-.77-1.17-1.21-2.58-1.44-4-.45-2.82.3-5.96,2.43-7.89,1.05-.95,2.39-1.56,3.8-1.66.19-.01.38,0,.57,0-.22,1.05-.14,2.15.21,3.12.22.66.53,1.3.9,1.9-.34.36-.67.72-.99,1.11-.59.7-1.09,1.5-1.5,2.35-.39.87-.64,1.78-.73,2.77-.05.98.13,2.02.62,2.92.48.91,1.24,1.63,2.1,2.13.86.51,1.82.81,2.82.88.99.05,2.06-.13,2.95-.77.79-.6,1.46-1.4,1.74-2.43.3-1.01,0-2.23-.81-2.95-.77-.74-1.95-.98-2.96-.74-.51.11-.97.3-1.4.54-.45.23-.83.48-1.26.82-.05.04-.11.1-.15.15-.26.36-.19.86.17,1.13.36.26.86.19,1.13-.17h0c.43-.59,1.12-1.12,1.81-1.35.68-.25,1.45-.11,1.98.37.53.47.7,1.22.45,1.89-.24.66-.8,1.27-1.44,1.66-1.2.67-2.97.43-4.28-.3-.66-.38-1.24-.9-1.59-1.56-.36-.65-.51-1.39-.52-2.17.04-.77.22-1.59.52-2.34.33-.75.72-1.48,1.25-2.15.23-.32.49-.62.75-.93.35.41.74.79,1.2,1.11.69.46,1.54.78,2.44.76.9,0,1.78-.4,2.42-.98.32-.29.59-.6.83-.98.25-.38.43-.86.45-1.36.04-1.01-.49-1.83-1.04-2.43-.52-.54-1.1-.97-1.7-1.34.49-.66.96-1.35,1.37-2.07.44-.79.86-1.58,1.15-2.47.28-.88.44-1.79.47-2.71.06-1.83-.37-3.68-1.28-5.3-.89-1.59-2.36-3.06-4.35-3.4-.97-.17-1.99,0-2.87.38-.89.39-1.67.95-2.32,1.62-1.35,1.25-2.4,3.09-2.3,5.11.1.98.4,1.96.98,2.77.59.79,1.39,1.43,2.32,1.81.95.34,1.99.36,2.96.1.45-.21.94-.34,1.32-.66l.59-.42.51-.51c.65-.69,1.24-1.66,1.12-2.77-.09-1.09-.74-2.01-1.57-2.6-.82-.57-1.87-.93-2.99-.7-.55.13-1.08.43-1.47.84-.42.42-.62.92-.84,1.42-.02.05-.04.11-.05.16-.09.44.19.86.63.95.44.09.86-.19.95-.63v-.07c.15-.68.5-1.24,1.11-1.42.61-.21,1.41-.03,2.02.38.62.41,1.1,1.05,1.15,1.75.08.7-.31,1.39-.84,1.96l-.42.42-.49.33c-.31.26-.7.33-1.04.51-.75.18-1.52.15-2.24-.11-.71-.3-1.31-.8-1.77-1.42-.45-.64-.66-1.4-.74-2.16-.03-1.55.73-3.07,1.91-4.23,1.12-1.21,2.68-2.03,4.23-1.81,1.56.22,2.9,1.41,3.75,2.84.84,1.45,1.26,3.16,1.22,4.84-.02.84-.16,1.68-.43,2.48-.27.79-.68,1.56-1.1,2.3-.42.73-.9,1.42-1.42,2.08-.52-.25-1.06-.48-1.6-.65-.8-.25-1.63-.42-2.46-.51.04-.06.07-.12.11-.17.72-1.08,2.11-1.64,3.24-1.3.04.01.09.02.14.03.44.05.84-.27.89-.71.05-.44-.27-.84-.71-.89h-.04c-1.86-.21-3.59.8-4.48,2.23-.15.24-.27.5-.38.76-.31,0-.62.01-.94.04-1.59.16-3.12.85-4.27,1.94-1.16,1.09-1.97,2.49-2.42,3.99-.46,1.5-.54,3.09-.37,4.63.19,1.54.61,3.07,1.41,4.46.79,1.4,2.03,2.53,3.38,3.34,1.35.82,2.78,1.37,4.15,1.95,1.37.58,2.7,1.17,3.95,1.86,1.19.67,2.18,1.73,2.44,3.09.28,1.32-.05,2.85-.78,3.92l-.02.03c-.04.07-.08.14-.1.22-.02.08-.02.16-.02.24-.16,0-.32.03-.46.13l-.03.02c-1.07.73-2.61,1.07-3.92.78-1.36-.27-2.43-1.25-3.09-2.44-.68-1.24-1.27-2.58-1.86-3.95-.58-1.37-1.13-2.8-1.95-4.15-.81-1.35-1.94-2.59-3.34-3.38-1.4-.8-2.92-1.22-4.46-1.41-1.54-.17-3.13-.09-4.63.37-1.5.45-2.9,1.27-3.99,2.42-1.09,1.16-1.78,2.69-1.94,4.27-.03.31-.04.62-.04.94-.26.11-.52.23-.76.38-1.44.89-2.45,2.62-2.24,4.48v.05s.02.09.03.14c.13.42.57.67,1,.54.42-.13.67-.57.54-1-.34-1.13.22-2.52,1.3-3.24.06-.04.12-.07.17-.11.08.84.25,1.66.51,2.46.18.54.4,1.08.65,1.6-.66.52-1.35,1-2.08,1.42-.74.43-1.52.84-2.3,1.1-.79.27-1.63.41-2.48.43-1.68.04-3.39-.38-4.84-1.22-1.43-.85-2.62-2.18-2.84-3.75-.22-1.56.6-3.12,1.81-4.23,1.16-1.18,2.68-1.94,4.23-1.91.76.08,1.52.3,2.16.74.62.46,1.12,1.07,1.42,1.77.26.72.29,1.49.11,2.24-.17.35-.24.74-.51,1.04l-.33.49-.42.42c-.57.53-1.26.92-1.96.84-.7-.05-1.34-.52-1.75-1.15-.42-.61-.59-1.42-.38-2.02.19-.61.74-.96,1.42-1.1l.08-.02c.05-.01.11-.03.16-.05.41-.18.59-.65.41-1.06s-.65-.59-1.06-.41c-.5.22-1,.42-1.42.84-.42.39-.71.93-.84,1.48-.23,1.12.13,2.17.7,2.99.58.82,1.51,1.47,2.6,1.57,1.11.11,2.08-.48,2.77-1.12l.51-.51.42-.59c.32-.37.45-.87.66-1.32.26-.97.24-2.01-.1-2.96-.37-.93-1.02-1.72-1.81-2.32-.81-.58-1.78-.88-2.77-.98-2.01-.1-3.85.96-5.11,2.3-.67.65-1.23,1.43-1.62,2.32-.38.88-.55,1.9-.38,2.87.34,1.98,1.82,3.46,3.4,4.35ZM55.23,28.75c.44.49.72,1.08.7,1.6,0,.26-.09.51-.25.75-.16.26-.39.52-.62.73-.47.43-1.04.68-1.65.71-.61.03-1.24-.17-1.79-.53-.4-.26-.76-.61-1.08-.99.66-.71,1.35-1.42,2.01-2.15.4-.44.79-.9,1.16-1.36.57.35,1.09.76,1.52,1.24ZM51.69,26.55c.41.15.82.33,1.22.52-.34.39-.69.77-1.05,1.15-.63.66-1.29,1.29-1.94,1.94-.27-.45-.51-.93-.66-1.44-.32-.89-.35-1.87-.1-2.74.86.09,1.72.28,2.54.57ZM32.01,51.62c.36.56.56,1.19.53,1.79-.03.61-.28,1.18-.71,1.65-.21.23-.48.46-.73.62-.24.16-.49.24-.75.25-.52.02-1.1-.26-1.6-.7-.48-.42-.89-.95-1.24-1.52.46-.38.92-.76,1.36-1.16.73-.67,1.44-1.35,2.15-2.01.38.33.73.68.99,1.08ZM26.55,51.69c-.29-.82-.48-1.68-.57-2.54.87-.25,1.84-.22,2.74.1.5.16.98.39,1.44.66-.65.65-1.28,1.31-1.94,1.94-.37.36-.76.71-1.15,1.05-.19-.4-.37-.8-.52-1.22Z"/>
      <path class="cls-1" d="M11.76,57.02c.37-.37.37-.96,0-1.32-.37-.37-.96-.37-1.32,0s-.37.96,0,1.32c.37.37.96.37,1.32,0Z"/>
      <path class="cls-1" d="M44.38,55.53c-.4.4-.4,1.04,0,1.44.4.4,1.04.4,1.44,0,.4-.4.4-1.04,0-1.44s-1.04-.4-1.44,0Z"/>
      <path class="cls-1" d="M25.2,43.58c.62-.62.62-1.64,0-2.26s-1.64-.62-2.26,0c-.62.62-.62,1.64,0,2.26.62.62,1.64.62,2.26,0Z"/>
      <path class="cls-1" d="M7.64,57.93c.66-.66.66-1.72,0-2.37-.66-.66-1.72-.66-2.37,0-.66.66-.66,1.72,0,2.37s1.72.66,2.37,0Z"/>
    </g>
  </g>
</svg>