<?xml version="1.0" encoding="UTF-8"?>
<svg id="_レイヤー_2" data-name="レイヤー_2" xmlns="http://www.w3.org/2000/svg" viewBox="0 0 62.81 62.81">
  <defs>
    <style>
      .cls-1 {
        fill: #442a19;
      }
    </style>
  </defs>
  <g id="layer">
    <g>
      <path class="cls-1" d="M59.57,55.04c-.3-1.31-.94-2.49-1.68-3.56-.39-.52-.77-1.06-1.26-1.52-.48-.46-1.01-.85-1.55-1.22-1.09-.73-2.28-1.28-3.45-1.81-1.17-.53-2.35-1.02-3.46-1.59-1.1-.57-2.14-1.25-2.88-2.11-.37-.43-.65-.9-.83-1.41-.08-.26-.16-.52-.2-.78-.05-.26-.05-.48-.03-.72.1-.93.77-1.81,1.64-2.5,1.76-1.35,4.19-2.07,6.34-1.96,1.07.08,2.06.37,2.71.96.65.57,1.03,1.41,1.16,2.45.12,1.09.05,2.16-.35,2.83-.37.64-1.09,1.02-2.09.98-1.94-.07-4.2-1.65-3.76-3.86h0c.05-.26-.08-.53-.32-.64-.29-.13-.63,0-.76.28-.31.67-.45,1.47-.31,2.26.12.79.49,1.51.97,2.12.98,1.2,2.37,1.99,3.94,2.23.79.11,1.65.06,2.48-.25.84-.3,1.6-.92,2.09-1.67.98-1.53,1.02-3.17.88-4.6-.09-.76-.26-1.54-.62-2.29-.35-.74-.89-1.44-1.54-1.97-1.32-1.08-2.94-1.48-4.41-1.49-2.96,0-5.68,1.08-7.83,3.01-1.04.97-2,2.33-2.04,4,0,.4.05.82.15,1.19.09.36.22.7.37,1.04.31.67.76,1.28,1.27,1.78,1.03,1,2.26,1.6,3.46,2.13,1.21.52,2.42.92,3.61,1.37,2.34.9,4.75,1.95,6.11,4.09.71,1.02,1.27,2.17,1.46,3.37.11.6.13,1.21.03,1.8-.07.51-.24,1.06-.47,1.46-.39.23-.94.4-1.46.47-.59.09-1.2.08-1.8-.03-1.21-.19-2.35-.75-3.37-1.46-2.14-1.36-3.2-3.77-4.09-6.11-.45-1.19-.85-2.41-1.37-3.61-.52-1.2-1.12-2.43-2.13-3.46-.5-.51-1.1-.96-1.78-1.27-.34-.15-.69-.28-1.04-.37-.36-.1-.78-.16-1.19-.15-1.67.04-3.03,1.01-4,2.04-1.93,2.15-3.01,4.87-3.01,7.83.01,1.47.41,3.09,1.49,4.41.53.65,1.23,1.19,1.97,1.54.75.36,1.53.53,2.29.62,1.42.14,3.06.1,4.6-.88.74-.49,1.37-1.25,1.67-2.09.31-.84.36-1.7.25-2.48-.24-1.57-1.02-2.97-2.23-3.94-.6-.48-1.33-.85-2.12-.97-.78-.14-1.59,0-2.26.31-.24.11-.38.37-.32.63.06.31.36.51.68.45h0c2.21-.44,3.78,1.82,3.86,3.76.04.99-.34,1.71-.98,2.09-.67.39-1.74.46-2.83.35-1.03-.13-1.87-.51-2.45-1.16-.59-.65-.88-1.64-.96-2.71-.11-2.15.6-4.58,1.96-6.34.68-.87,1.57-1.53,2.5-1.64.24-.02.46-.02.72.03.27.04.53.11.78.2.51.18.98.46,1.41.83.86.74,1.54,1.78,2.11,2.88.57,1.11,1.07,2.29,1.59,3.46.52,1.18,1.07,2.36,1.81,3.45.37.54.76,1.07,1.22,1.55.45.49,1,.88,1.52,1.26,1.07.75,2.25,1.38,3.56,1.68,1.19.28,2.43.35,3.71-.08.19.02.38-.05.5-.2,0,0,0,0,0,0,.18-.13.27-.34.24-.55.42-1.28.35-2.51.08-3.7Z"/>
      <path class="cls-1" d="M62.75,4.37c-.14-.96-.6-1.97-1.35-2.67-.73-.72-1.61-1.15-2.46-1.39-.85-.23-1.69-.35-2.6-.3-.9.06-1.84.33-2.65.82-1.65,1.02-2.5,2.71-2.88,4.27-.39,1.59-.4,3.19-.16,4.74.13.78.33,1.55.65,2.31.17.38.35.75.61,1.11.24.35.49.64.75.93,1.04,1.14,2.17,2.05,3.21,3.01,1.03.96,2.01,1.96,2.56,3.17.58,1.2.62,2.55.25,3.91-.33,1.35-.99,2.59-1.83,3.74-.41.58-.88,1.14-1.25,1.81-.38.66-.56,1.51-.4,2.28.07.38.2.79.5,1.12.28.34.74.53,1.17.55.86.02,1.59-.35,2.21-.83.31-.25.59-.54.8-.91.11-.19.21-.39.24-.65.03-.28,0-.48-.06-.72-.12-.49-.57-.89-1-1.05-.45-.16-.84-.22-1.32-.2-.03,0-.06,0-.09.01-.31.07-.51.37-.44.68.07.31.37.51.68.44h0c.24-.05.58-.07.82,0,.24.08.41.18.49.4.25.42-.12,1-.61,1.44-.48.43-1.12.76-1.71.76-.61.03-1.01-.49-1.11-1.15-.33-1.34.72-2.47,1.59-3.6.91-1.13,1.69-2.46,2.11-3.9.21-.71.38-1.47.39-2.25,0-.78-.15-1.57-.44-2.3-.58-1.47-1.57-2.66-2.56-3.74-1-1.08-2.05-2.07-2.87-3.14-.2-.26-.4-.54-.55-.8-.15-.24-.26-.53-.37-.82-.2-.59-.32-1.23-.38-1.88-.12-1.3,0-2.64.39-3.83.39-1.18,1.05-2.2,1.92-2.67.85-.48,2.01-.46,3.13-.13,1.09.35,1.65.95,1.81,1.85.16.92-.2,2.11-.83,3.04-.66.92-1.54,1.55-2.31,1.38-.57-.11-1.09-.31-1.44-.61-.35-.3-.53-.65-.53-1.06.02-.4.26-.86.7-1.19.43-.34,1.03-.55,1.67-.64h.02c.27-.04.48-.26.49-.54.02-.32-.22-.59-.54-.61-.79-.04-1.66.04-2.46.47-.8.4-1.52,1.19-1.73,2.22-.23,1.03.18,2.17.87,2.86.68.72,1.53,1.12,2.35,1.37.98.31,2.15.14,2.99-.3.88-.42,1.53-1.07,2.08-1.76,1.06-1.39,1.71-3.13,1.44-5.08Z"/>
      <path class="cls-1" d="M46.92,25.81c1.27.33,2.71.14,3.86-.56,1.13-.72,2.02-1.72,2.43-3.07.4-1.35.01-2.92-1.01-3.92-.5-.5-1.17-.88-1.92-.99-.75-.12-1.55.09-2.15.51-.62.42-1.01.98-1.34,1.52-.31.57-.64,1.26-.45,2.14.1.43.4.85.78,1.08.38.23.79.31,1.18.3.78-.03,1.51-.45,1.92-1.09.16-.25.11-.59-.14-.77-.25-.19-.61-.13-.8.12h0c-.23.32-.62.51-1,.5-.39-.01-.62-.2-.65-.44-.11-.55.63-1.75,1.29-2.16.69-.45,1.59-.28,2.22.35.63.62.88,1.59.62,2.45-.25.86-.93,1.74-1.73,2.25-.81.52-1.83.68-2.79.46-.96-.21-1.86-.78-2.44-1.58-.58-.78-.75-1.81-.56-2.83.36-2.03,2.08-3.89,4.19-4.07,2.15-.21,4.41.73,5.74,2.47.66.86,1.11,1.9,1.22,2.99.13,1.09-.08,2.19-.43,3.26-.72,2.12-1.99,4.09-3.44,5.77l-.02.02s-.03.04-.04.06c-.17.27-.1.62.16.8s.62.1.8-.16c1.31-1.99,2.45-4.02,3.18-6.28.77-2.21.63-4.93-.88-6.88-1.45-1.97-3.92-3.04-6.37-2.92-1.26.06-2.48.64-3.39,1.49-.92.86-1.57,1.98-1.85,3.23-.29,1.22-.13,2.66.63,3.78.73,1.11,1.89,1.88,3.17,2.19Z"/>
      <path class="cls-1" d="M41.52,33.81c.5.19,1.01.23,1.49.21.97-.06,1.86-.36,2.66-.76,1.63-.77,3.03-1.94,4.14-3.31,1.15-1.36,2.07-2.82,2.93-4.46.02-.04.04-.09.05-.14.07-.31-.12-.62-.43-.69-.31-.07-.62.12-.69.43v.03c-.38,1.59-1.24,3.15-2.33,4.42-.56.63-1.17,1.22-1.85,1.71-.67.51-1.39.93-2.16,1.23-.76.32-1.57.51-2.33.5-.75,0-1.49-.32-1.69-.79-.11-.23-.05-.39.05-.47.03-.02.05-.06.1-.07.04-.02.08-.05.18-.07.16-.05.33-.09.5-.11.65-.09,1.43.15,1.94.51.27.19.65.18.91-.05.31-.27.34-.74.07-1.05l-.06-.07c-.07-.08-.2-.28-.23-.4-.04-.14-.03-.27.02-.42.05-.15.18-.32.33-.49.18-.17.35-.32.52-.42.35-.21.75-.27,1.22-.17.45.08.96.34,1.36.61l.05.03c.22.15.53.13.73-.07.22-.22.22-.59,0-.81-.52-.51-1.08-.85-1.78-1.09-.69-.22-1.57-.19-2.27.19-.36.18-.64.44-.89.69-.25.28-.5.59-.65,1.01-.08.2-.12.43-.13.66-.42-.07-.85-.09-1.3-.02-.26.04-.52.11-.76.2-.11.03-.26.11-.41.2-.15.07-.28.2-.4.33-.25.26-.37.64-.4.99,0,.35.09.68.24.95.31.54.81.88,1.3,1.05Z"/>
      <path class="cls-1" d="M47.51,14.66c.75-.01,1.35-.37,1.78-.77.19-.18.24-.48.1-.71-.16-.27-.52-.36-.79-.19l-.03.02c-.36.22-.73.35-1.01.3-.28-.03-.46-.19-.53-.41-.07-.22-.04-.5.13-.8.17-.3.48-.57.83-.81l.06-.04c.08-.06.15-.13.2-.22.2-.34.09-.78-.25-.98-.2-.12-.3-.27-.32-.56-.02-.28.09-.63.26-.94.22-.38.56-.68.94-.85-.13.27-.24.55-.33.83-.18.62-.22,1.28-.12,1.91.1.63.29,1.23.54,1.8.26.58.52,1.12.9,1.71.04.07.1.13.17.17.27.18.63.11.81-.16.18-.27.11-.63-.16-.81-.42-.28-.82-.74-1.1-1.22-.28-.49-.47-1.02-.52-1.57-.12-1.1.29-2.17,1.05-2.96.05-.05.09-.12.11-.2.06-.24-.08-.48-.32-.55l-.06-.02c-.55-.15-1.17-.08-1.68.15-.52.23-.96.6-1.3,1.05-.34.45-.58,1-.6,1.64-.02.33.06.71.24,1.04-.25.23-.49.49-.68.8-.35.57-.52,1.39-.2,2.13.3.74,1.11,1.23,1.85,1.22Z"/>
      <path class="cls-1" d="M32.12,55.21c-.77-.16-1.62.02-2.28.4-.67.37-1.23.84-1.81,1.25-1.15.84-2.39,1.5-3.74,1.83-1.36.37-2.71.33-3.91-.25-1.21-.55-2.21-1.53-3.17-2.56-.96-1.04-1.87-2.17-3.01-3.21-.29-.26-.58-.51-.93-.75-.36-.26-.73-.43-1.11-.61-.76-.32-1.53-.52-2.31-.65-1.56-.25-3.15-.23-4.74.16-1.56.38-3.26,1.23-4.27,2.88-.5.81-.77,1.75-.82,2.65-.05.91.07,1.75.3,2.6.24.85.67,1.73,1.39,2.46.7.74,1.71,1.2,2.67,1.35,1.95.26,3.69-.38,5.08-1.44.68-.55,1.33-1.2,1.76-2.08.44-.84.61-2.01.3-2.99-.25-.82-.65-1.66-1.37-2.35-.69-.69-1.83-1.1-2.86-.87-1.03.21-1.82.93-2.22,1.73-.43.8-.51,1.66-.47,2.46.01.27.22.5.49.54.31.04.6-.17.65-.49v-.02c.1-.64.31-1.24.65-1.67.34-.44.79-.68,1.19-.7.41,0,.76.17,1.06.53.3.35.5.87.61,1.44.17.77-.46,1.65-1.38,2.31-.93.62-2.12.98-3.04.83-.9-.16-1.51-.72-1.85-1.81-.33-1.11-.34-2.28.13-3.13.46-.87,1.49-1.53,2.67-1.92,1.19-.39,2.53-.51,3.83-.39.65.06,1.29.18,1.88.38.29.11.58.22.82.37.26.15.54.34.8.55,1.07.82,2.06,1.87,3.14,2.87,1.08.99,2.27,1.98,3.74,2.56.73.29,1.52.44,2.3.44.79,0,1.54-.18,2.25-.39,1.44-.42,2.77-1.2,3.9-2.11,1.13-.87,2.25-1.92,3.6-1.59.66.11,1.17.51,1.15,1.11,0,.6-.34,1.23-.76,1.71-.43.49-1.02.86-1.44.61-.21-.09-.32-.25-.4-.49-.07-.24-.06-.58,0-.82h0s0-.07.01-.1c.02-.32-.22-.59-.54-.61-.32-.02-.59.22-.61.54-.03.47.04.87.2,1.32.16.43.56.88,1.05,1,.25.07.44.09.72.06.25-.04.46-.13.65-.24.37-.22.67-.5.91-.8.48-.61.86-1.35.83-2.21-.02-.42-.21-.88-.55-1.17-.33-.3-.74-.43-1.12-.5Z"/>
      <path class="cls-1" d="M18.04,54.74c1.95,1.51,4.67,1.65,6.88.88,2.26-.73,4.29-1.87,6.28-3.18.02-.01.04-.03.06-.04.24-.21.27-.57.06-.81s-.57-.27-.81-.06l-.02.02c-1.69,1.45-3.66,2.71-5.77,3.44-1.06.35-2.17.56-3.26.43-1.09-.12-2.13-.56-2.99-1.23-1.74-1.33-2.67-3.6-2.47-5.74.18-2.11,2.04-3.83,4.07-4.19,1.02-.19,2.05-.02,2.83.56.79.57,1.36,1.48,1.58,2.44.22.96.06,1.98-.46,2.79-.51.8-1.39,1.49-2.25,1.73-.87.26-1.83.01-2.45-.62-.63-.63-.8-1.53-.35-2.22.41-.66,1.62-1.41,2.16-1.29.24.03.42.26.44.65,0,.38-.18.77-.5,1h0c-.24.18-.31.52-.14.78.17.26.53.34.79.17.64-.42,1.06-1.14,1.09-1.92.02-.39-.07-.8-.3-1.18-.23-.38-.64-.68-1.08-.78-.88-.19-1.58.14-2.14.45-.54.33-1.1.72-1.52,1.34-.41.6-.63,1.41-.51,2.15.12.75.49,1.41.99,1.92,1,1.03,2.57,1.41,3.92,1.01,1.35-.41,2.36-1.3,3.07-2.43.7-1.15.89-2.59.56-3.86-.31-1.28-1.08-2.43-2.19-3.17-1.11-.76-2.55-.92-3.78-.63-1.24.28-2.37.93-3.23,1.85-.86.91-1.43,2.13-1.49,3.39-.12,2.45.95,4.92,2.92,6.37Z"/>
      <path class="cls-1" d="M28.66,48.97c.19.19.5.23.73.07.26-.18.33-.53.15-.79l-.03-.05c-.27-.4-.53-.91-.61-1.36-.11-.46-.05-.87.17-1.22.11-.17.25-.34.42-.52.17-.14.34-.27.49-.33.15-.05.28-.06.42-.02.13.03.33.17.4.23l.07.06c.25.22.63.25.91.05.34-.23.42-.7.19-1.03-.36-.51-.59-1.29-.51-1.94.02-.17.05-.33.11-.5.02-.1.05-.14.07-.18.01-.06.05-.08.07-.1.08-.11.24-.16.47-.05.47.2.8.94.79,1.69,0,.76-.18,1.57-.5,2.33-.3.77-.72,1.5-1.23,2.16-.49.68-1.08,1.29-1.71,1.85-1.27,1.09-2.83,1.95-4.42,2.32h-.03s-.09.04-.13.06c-.28.15-.39.5-.24.78.15.28.5.39.78.24,1.64-.86,3.1-1.78,4.46-2.93,1.37-1.11,2.54-2.51,3.31-4.14.4-.8.7-1.69.76-2.66.02-.48-.02-.99-.21-1.49-.17-.5-.51-.99-1.05-1.3-.27-.15-.6-.24-.95-.24-.35.03-.72.15-.99.4-.13.12-.26.25-.33.4-.09.15-.17.3-.2.41-.09.24-.16.5-.2.76-.06.44-.04.87.02,1.3-.23.01-.46.06-.66.13-.42.15-.73.4-1.01.65-.25.25-.51.54-.69.89-.38.71-.41,1.58-.19,2.27.24.7.58,1.27,1.09,1.78Z"/>
      <path class="cls-1" d="M6.64,49.95c.02.07.06.14.11.19.17.18.45.18.63.01.79-.76,1.86-1.17,2.96-1.05.55.04,1.09.24,1.57.52.48.27.93.67,1.22,1.1.04.06.1.13.17.17.27.17.63.09.81-.18s.09-.63-.18-.81c-.59-.38-1.13-.64-1.71-.9-.57-.25-1.17-.44-1.8-.54-.63-.1-1.29-.06-1.91.12-.29.09-.56.2-.83.33.17-.39.47-.73.85-.94.31-.17.66-.28.94-.26.29.02.44.12.56.32.05.08.12.16.21.22.33.23.77.15,1-.18l.04-.06c.24-.35.51-.66.81-.83.29-.18.58-.21.8-.13.22.07.38.25.41.53.05.28-.08.65-.3,1.01l-.02.03c-.14.23-.1.53.1.71.23.22.59.21.81-.03.4-.43.76-1.03.77-1.78.02-.74-.48-1.55-1.22-1.85-.74-.32-1.56-.15-2.13.2-.32.19-.58.43-.8.68-.34-.17-.71-.26-1.04-.24-.64.03-1.19.26-1.64.6-.45.34-.82.78-1.05,1.3-.23.52-.3,1.13-.15,1.68l.02.06Z"/>
    </g>
  </g>
</svg>